<svg id="Layer_1" data-name="Layer 1" xmlns="http://www.w3.org/2000/svg" viewBox="0 0 68 49"><defs><style>.cls-1,.cls-2{stroke:#fff;stroke-linecap:round;stroke-linejoin:round;stroke-width:0.29px;}.cls-2{fill:#fff;}</style></defs><title>Landing Page</title><g id="g2477"><g id="g1759"><path id="Blue" class="cls-1" d="M42.56,41a1.65,1.65,0,0,0,1.65-1.65V12.82a1.65,1.65,0,0,0-1.65-1.65H16a1.65,1.65,0,0,0-1.65,1.65V39.35A1.65,1.65,0,0,0,16,41Z"/><path id="f" class="cls-2" d="M35,41V29.45h3.88l.58-4.5H35V22.07c0-1.3.36-2.19,2.23-2.19h2.39v-4a34.26,34.26,0,0,0-3.48-.17c-3.43,0-5.79,2.09-5.79,5.95V25H26.43v4.5h3.88V41Z"/></g></g></svg>