<svg id="Layer_1" data-name="Layer 1" xmlns="http://www.w3.org/2000/svg" viewBox="0 0 49 56"><defs><style>.cls-1{fill:#fff;}</style></defs><title>Landing Page</title><g id="g1746"><g id="g10"><g id="g12"><path id="path14" class="cls-1" d="M22.93,21.07c-4.08,0-4.59,0-6.19.09a11,11,0,0,0-3.64.69,7.49,7.49,0,0,0-2.65,1.73,7.26,7.26,0,0,0-1.73,2.66A10.76,10.76,0,0,0,8,29.88c-.08,1.6-.09,2.11-.09,6.19s0,4.58.09,6.18a10.66,10.66,0,0,0,.7,3.64,7.18,7.18,0,0,0,1.73,2.66,7.36,7.36,0,0,0,2.65,1.73,11.27,11.27,0,0,0,3.64.7c1.6.07,2.11.09,6.19.09s4.58,0,6.18-.09a11.16,11.16,0,0,0,3.64-.7,7.66,7.66,0,0,0,4.39-4.39,11.16,11.16,0,0,0,.7-3.64c.07-1.6.09-2.11.09-6.18s0-4.59-.09-6.19a11.27,11.27,0,0,0-.7-3.64,7.66,7.66,0,0,0-4.39-4.39,10.93,10.93,0,0,0-3.64-.69c-1.6-.08-2.11-.09-6.18-.09Zm0,2.7c4,0,4.48,0,6.06.09a8.24,8.24,0,0,1,2.78.51A4.77,4.77,0,0,1,33.5,25.5a4.62,4.62,0,0,1,1.12,1.72A8.24,8.24,0,0,1,35.14,30c.07,1.58.08,2.05.08,6.06s0,4.48-.08,6.06a8.22,8.22,0,0,1-.52,2.78,4.92,4.92,0,0,1-2.85,2.85,8.17,8.17,0,0,1-2.78.52c-1.58.07-2.06.08-6.06.08s-4.48,0-6.06-.08a8.24,8.24,0,0,1-2.79-.52,4.62,4.62,0,0,1-1.72-1.12,4.77,4.77,0,0,1-1.13-1.73,8.29,8.29,0,0,1-.51-2.78c-.07-1.58-.09-2.06-.09-6.06s0-4.48.09-6.06a8.31,8.31,0,0,1,.51-2.79,5.08,5.08,0,0,1,2.85-2.85,8.31,8.31,0,0,1,2.79-.51c1.58-.08,2.05-.09,6.06-.09"/><path id="path16-2" class="cls-1" d="M22.93,41.07a5,5,0,1,1,5-5A5,5,0,0,1,22.93,41.07Zm0-12.71a7.71,7.71,0,1,0,7.7,7.71,7.71,7.71,0,0,0-7.7-7.71"/><path id="path18" class="cls-1" d="M32.73,28.06a1.8,1.8,0,1,1-1.8-1.8,1.8,1.8,0,0,1,1.8,1.8"/></g></g></g></svg>