<svg id="Layer_1" data-name="Layer 1" xmlns="http://www.w3.org/2000/svg" viewBox="0 0 77 69"><defs><style>.cls-1{fill:#fff;}</style></defs><title>Landing Page</title><g id="g1325"><rect id="rect1156" class="cls-1" x="37.33" y="7" width="29.67" height="29.67" rx="3.15"/><path id="path1193" d="M63.75,12.22a13.45,13.45,0,0,1-1.3.65c-.65.25-2,.58-2,.58s-2-2.57-5.72-1.13A5,5,0,0,0,52,18a12.91,12.91,0,0,1-4.55-1,18.87,18.87,0,0,1-3.89-2.24,18.25,18.25,0,0,1-2-2.07,5.15,5.15,0,0,0,.55,5.86,6.81,6.81,0,0,0,1,.9,10,10,0,0,1-1.18-.17,10.51,10.51,0,0,1-1.12-.45,5,5,0,0,0,2.53,4.44,6.25,6.25,0,0,0,1.48.57,8.73,8.73,0,0,1-1,.18A10.26,10.26,0,0,1,42.6,24a5.58,5.58,0,0,0,1.94,2.63,6,6,0,0,0,2.77.88,11.23,11.23,0,0,1-5.2,2.11,17.49,17.49,0,0,1-2.25,0A13.55,13.55,0,0,0,42.76,31a25.06,25.06,0,0,0,3.07.74,21.88,21.88,0,0,0,4.23-.09,14,14,0,0,0,5.37-2,14.36,14.36,0,0,0,5.09-5.91,19.44,19.44,0,0,0,1.21-4.09,22.72,22.72,0,0,0,.19-2.78s.82-.64,1.19-1,1.36-1.65,1.36-1.65a15.18,15.18,0,0,1-1.48.6,13.93,13.93,0,0,1-1.54.26,6.24,6.24,0,0,0,.82-.55,4.8,4.8,0,0,0,.92-1,8.94,8.94,0,0,0,.56-1.21Z"/></g></svg>