<svg id="Layer_1" data-name="Layer 1" xmlns="http://www.w3.org/2000/svg" viewBox="0 0 40 39"><defs><style>.cls-1,.cls-3{fill:#fff;}.cls-1,.cls-2{fill-rule:evenodd;}</style></defs><title>Landing Page</title><g id="g1360"><g id="g977"><path id="path964" class="cls-1" d="M16,2A14.53,14.53,0,0,0,1.43,16.54h0a14.5,14.5,0,0,0,1.93,7.21L2.28,27.57l-1,3.78,3.71-1L9,29.3A14.53,14.53,0,1,0,16,2Z"/><path id="path974" class="cls-2" d="M15.84,4.69a11.77,11.77,0,0,0-12,11.56A11.27,11.27,0,0,0,5.46,22l.59,1.46L4.76,27.85l3.05-.8c.85-.22,2.31-.65,2.31-.65a12.32,12.32,0,0,0,5.72,1.41,11.77,11.77,0,0,0,12-11.56,11.77,11.77,0,0,0-12-11.56Z"/><path id="path976" class="cls-3" d="M12,10a15.87,15.87,0,0,1,1.61,3.55,2.54,2.54,0,0,1-.23.54c-.14.22-.29.36-.5.66s-.54.42-.54.74.39.74.63,1.08A10,10,0,0,0,14.1,18c1.07,1,2.85,2.27,3.73,2.25.27,0,1-1.27,1.63-1.85a.74.74,0,0,1,.32-.11L23.29,20a4.3,4.3,0,0,1-.43,2.06c-1.45,1.68-2.76,1.52-2.76,1.52s-4.77-.29-7.78-3.62a20.48,20.48,0,0,1-3.15-4.29,5.45,5.45,0,0,1-.58-1.78,3.16,3.16,0,0,1,.13-1.76A3.63,3.63,0,0,1,10.35,10s1.24-.31,1.6.06Z"/></g></g></svg>